<?xml version="1.0" encoding="iso-8859-1"?>
<!-- Generator: Adobe Illustrator 17.1.0, SVG Export Plug-In . SVG Version: 6.00 Build 0)  -->
<!DOCTYPE svg PUBLIC "-//W3C//DTD SVG 1.1//EN" "http://www.w3.org/Graphics/SVG/1.1/DTD/svg11.dtd">
<svg version="1.1" id="Capa_1" xmlns="http://www.w3.org/2000/svg" xmlns:xlink="http://www.w3.org/1999/xlink" x="0px" y="0px"
	 viewBox="0 0 296.609 296.609" style="enable-background:new 0 0 296.609 296.609;" xml:space="preserve">
<g>
	<path d="M93.225,224.305v-26h71.824c7.358-2,14.61-2.489,21.43-2.489c7.356,0,14.131,0.751,20.464,2.478
		c9.339,2.547,17.282,4.715,24.282,6.664v-6.652h0.579c8.25,0,15.028-6.999,15.063-15.249l0.03-7.419
		c0.034-8.25-3.252-20.941-7.304-28.128l-1.504-2.699c-1.746-3.098-4.612-5.964-7.966-8.21l-18.599-45.249
		c-3.627-8.786-12.637-15.998-22.045-18.278c-1.709,2.319-3.868,4.451-6.461,6.335c-5.163,3.751-11.561,6.304-18.371,8.897h18.758
		c4.911,0,11.39,4.24,13.325,8.93l14.09,34.07H85.188l12.979-31.371c-2.813-0.422-5.542-0.88-8.161-1.595
		c-2.62-0.714-5.146-1.356-7.586-2.029l-16.645,40.515c-3.173,2.254-5.854,5.09-7.465,8.154l-1.178,2.248
		c-3.837,7.305-6.945,20.033-6.908,28.283l0.034,7.544c0.037,8.25,6.818,15.251,15.068,15.251h-0.103v17.283
		c6,1.271,12.939,4.188,19.699,8.717H93.225z M74.712,161.252c4.894,0,8.862,3.969,8.862,8.862c0,4.893-3.97,8.862-8.862,8.861
		c-4.896,0.001-8.862-3.968-8.862-8.861C65.85,165.221,69.818,161.252,74.712,161.252z M229.795,170.116
		c0,4.892-3.969,8.859-8.865,8.859c-4.893,0.001-8.859-3.969-8.859-8.859c0-4.895,3.968-8.864,8.862-8.862
		C225.824,161.252,229.795,165.221,229.795,170.116z M172.558,179.305h-47c-4.418,0-8-3.582-8-8s3.582-8,8-8h47c4.418,0,8,3.582,8,8
		S176.976,179.305,172.558,179.305z"/>
	<path d="M93.963,83.004c5.199,1.418,10.877,2.039,16.548,2.039c13.603,0,27.949-3.576,39.653-8.315
		c15.986-6.47,31.307-10.025,27.364-21.067c-0.854-2.388-4.485-3.188-9.248-3.188c-9.68,0-23.954,3.305-28.716,3.305
		c-2.371,0-2.379-0.818,1.71-3.272c8.253-4.951,19.94-7.735,32.599-7.734c15.572,0.001,32.618,4.214,46.539,13.784
		c7.616,5.235,13.609,7.212,18.061,7.212c10.302,0,12.356-10.588,7.18-15.89c-10.779-11.04-50.478-43.38-73.352-48.901
		C169.489,0.298,166.123,0,162.351,0c-26.946,0.001-74.768,15.174-86.532,15.174c-6.41,0-17.594-3.427-27.594-7.002v61.971
		C53.225,71.717,70.349,76.565,93.963,83.004z"/>
	<path d="M134.765,296.609c26.946,0,74.434-15.174,86.198-15.174c6.41,0,17.262,3.427,27.262,7.002v-61.971
		c-5-1.574-21.792-6.423-45.405-12.861c-5.199-1.418-10.711-2.039-16.382-2.039c-13.603,0-27.866,3.576-39.57,8.315
		c-15.986,6.47-31.265,10.025-27.322,21.067c0.854,2.388,4.506,3.188,9.269,3.188c9.68,0,23.964-3.306,28.727-3.305
		c2.371,0,2.385,0.818-1.704,3.273c-8.253,4.951-19.937,7.734-32.596,7.734c-15.572,0-32.616-4.214-46.537-13.784
		c-7.616-5.235-13.608-7.212-18.06-7.212c-10.302,0.001-12.355,10.588-7.18,15.89c10.779,11.04,50.479,43.38,73.352,48.901
		C127.626,296.311,130.992,296.609,134.765,296.609z"/>
</g>
<g>
</g>
<g>
</g>
<g>
</g>
<g>
</g>
<g>
</g>
<g>
</g>
<g>
</g>
<g>
</g>
<g>
</g>
<g>
</g>
<g>
</g>
<g>
</g>
<g>
</g>
<g>
</g>
<g>
</g>
</svg>
